<svg xmlns="http://www.w3.org/2000/svg" viewBox="0 0 720 720" width="720" height="720">
  <rect width="720" height="720" fill="none"/>
  <g fill="none" stroke="#15110B" stroke-width="2.8" stroke-linecap="round" stroke-linejoin="round" opacity=".22">
    <path d="M14-40 C48 58 0 126 32 236 C58 326 10 454 34 566 C48 632 34 690 18 760"/>
    <path d="M64-35 C92 46 66 112 86 210 C108 318 58 390 86 500 C118 620 74 688 68 760"/>
    <path d="M118-42 C144 42 112 120 132 206 C152 288 128 360 144 440 C164 538 132 630 124 760"/>
    <path d="M176-36 C202 42 168 132 192 228 C218 330 176 420 198 518 C218 612 190 684 182 760"/>
    <path d="M244-44 C254 48 236 132 254 236 C272 342 250 430 268 536 C284 628 264 694 258 760"/>
    <path d="M318-42 C330 36 300 112 318 214 C340 334 312 426 334 534 C354 630 336 698 330 760"/>
    <path d="M392-36 C412 54 376 126 396 230 C420 352 388 446 412 560 C430 642 406 700 404 760"/>
    <path d="M458-46 C486 32 444 112 468 216 C494 330 458 420 482 520 C508 626 470 696 466 760"/>
    <path d="M526-40 C560 50 518 122 544 236 C572 360 526 452 554 566 C578 658 544 708 536 760"/>
    <path d="M600-38 C630 44 592 116 614 214 C640 330 606 420 628 524 C650 622 620 690 610 760"/>
    <path d="M668-42 C704 46 656 120 684 232 C714 350 672 454 698 566 C722 660 694 714 688 760"/>

    <path d="M132 206 C174 174 222 176 248 220 C274 266 242 318 194 316 C146 314 112 254 132 206Z"/>
    <path d="M162 232 C190 212 218 216 232 242 C246 270 228 294 198 294 C168 294 146 258 162 232Z"/>
    <path d="M184 250 C198 240 214 244 220 258 C226 272 214 282 200 280 C184 278 174 262 184 250Z"/>

    <path d="M320 492 C374 444 450 458 478 520 C508 588 454 650 382 640 C316 632 270 548 320 492Z"/>
    <path d="M348 514 C386 486 434 494 452 532 C472 574 438 612 392 606 C350 600 318 548 348 514Z"/>
    <path d="M374 536 C396 522 420 528 430 550 C440 572 420 590 396 586 C372 582 354 552 374 536Z"/>

    <path d="M548 120 C596 86 654 102 674 154 C696 212 646 258 588 244 C534 230 510 152 548 120Z"/>
    <path d="M570 142 C602 122 636 132 648 164 C662 198 632 224 598 216 C566 208 546 158 570 142Z"/>
  </g>
</svg>
